<svg xmlns="http://www.w3.org/2000/svg" xmlns:xlink="http://www.w3.org/1999/xlink" version="1.1" width="289.485" height="104.994" enable-background="new 0 0 289.485 104.994" xml:space="preserve" style=""><rect id="backgroundrect" width="100%" height="100%" x="0" y="0" fill="none" stroke="none"/>

<g class="currentLayer" style=""><title>Layer 1</title><g id="svg_1" class="selected" fill="#484848" fill-opacity="1">
	<path fill="#484848" d="M95.69,57.688c0,0,2.308,2.249,5.305,2.249c1.615,0,3.082-0.842,3.082-2.577   c0-3.805-10.033-3.146-10.033-9.676c0-3.531,3.055-6.168,7.127-6.168c4.193,0,6.35,2.276,6.35,2.276l-1.678,3.146   c0,0-2.035-1.859-4.699-1.859c-1.799,0-3.207,1.05-3.207,2.548c0,3.775,10.006,2.843,10.006,9.645c0,3.383-2.578,6.229-7.01,6.229   c-4.732,0-7.338-2.906-7.338-2.906L95.69,57.688z" id="svg_2" fill-opacity="1"/>
	<path fill="#484848" d="M124.322,59.965c3.892,0,7.006-3.233,7.006-7.605c0-4.194-3.114-7.311-7.006-7.311   c-3.896,0-7.011,3.116-7.011,7.311C117.312,56.731,120.427,59.965,124.322,59.965 M124.322,41.517   c6.259,0,10.991,4.765,10.991,10.843c0,6.26-4.732,11.142-10.991,11.142c-6.263,0-10.991-4.882-10.991-11.142   C113.331,46.281,118.06,41.517,124.322,41.517" id="svg_3" fill-opacity="1"/>
	<polygon fill="#484848" points="142.228,41.877 146.093,41.877 146.093,59.816 155.284,59.816 155.284,63.142 142.228,63.142  " id="svg_4" fill-opacity="1"/>
	<rect x="161.36000061035156" y="41.87699890136719" fill="#484848" width="3.865000009536743" height="21.264999389648438" id="svg_5" fill-opacity="1"/>
	<polygon fill="#484848" points="178.013,45.203 171.032,45.203 171.032,41.877 188.853,41.877 188.853,45.203 181.874,45.203    181.874,63.142 178.013,63.142  " id="svg_6" fill-opacity="1"/>
	<path fill="#484848" d="M200.263,45.561c0,0-0.479,2.095-0.898,3.294l-1.887,5.691h5.57l-1.891-5.691   c-0.385-1.199-0.834-3.294-0.834-3.294H200.263z M204.007,57.688h-7.459l-1.797,5.453h-3.98l7.486-21.265h4.041l7.488,21.265   h-3.982L204.007,57.688z" id="svg_7" fill-opacity="1"/>
	<rect x="215.5030059814453" y="41.87699890136719" fill="#484848" width="3.865000009536743" height="21.264999389648438" id="svg_8" fill-opacity="1"/>
	<path fill="#484848" d="M235.087,51.852c2.07,0,3.354-1.229,3.354-3.355c0-2.035-0.869-3.293-3.893-3.293h-2.934v6.648H235.087z    M227.749,41.877h6.857c2.307,0,3.355,0.18,4.283,0.6c2.127,0.957,3.473,2.994,3.473,5.807c0,2.548-1.346,4.914-3.59,5.814v0.057   c0,0,0.299,0.303,0.717,1.049l4.375,7.938h-4.314l-4.225-7.938h-3.711v7.938h-3.865V41.877z" id="svg_9" fill-opacity="1"/>
	<polygon fill="#484848" points="250.448,41.877 263.179,41.877 263.179,45.203 254.313,45.203 254.313,50.771 261.468,50.771    261.468,54.098 254.313,54.098 254.313,59.816 263.655,59.816 263.655,63.142 250.448,63.142  " id="svg_10" fill-opacity="1"/>
	<polygon fill="#484848" points="67.521,52.509 70.244,65.322 57.789,69.368  " id="svg_11" fill-opacity="1"/>
	<polygon fill="#484848" points="57.793,35.636 70.248,39.681 67.523,52.493  " id="svg_12" fill-opacity="1"/>
	<polygon fill="#484848" points="38.309,35.622 48.043,26.854 57.775,35.622  " id="svg_13" fill-opacity="1"/>
	<polygon fill="#484848" points="28.559,52.485 25.832,39.677 38.291,35.629  " id="svg_14" fill-opacity="1"/>
	<polygon fill="#484848" points="38.287,69.362 25.83,65.318 28.557,52.506  " id="svg_15" fill-opacity="1"/>
	<polygon fill="#484848" points="57.768,69.376 48.039,78.14 38.303,69.376  " id="svg_16" fill-opacity="1"/>
</g></g></svg>